<svg xmlns="http://www.w3.org/2000/svg" width="14" height="18" viewBox="0 0 14 18" fill="none">
<path d="M9.55061 2.05945C9.51211 2.02095 9.47033 1.98715 9.42526 1.9571C9.38019 1.92705 9.33277 1.9017 9.28253 1.88104C9.23277 1.86039 9.18112 1.84489 9.12807 1.83457C9.07502 1.82377 9.0215 1.8186 8.96704 1.8186C8.91305 1.8186 8.85953 1.82377 8.80648 1.83457C8.75296 1.84489 8.70178 1.86039 8.65155 1.88104C8.60131 1.9017 8.55389 1.92705 8.50882 1.9571C8.46375 1.98715 8.42197 2.02095 8.38394 2.05945L8.19005 2.25241C8.15202 2.2909 8.11774 2.33222 8.0877 2.37729C8.05765 2.42236 8.0323 2.46978 8.01117 2.51954C7.99051 2.56978 7.97502 2.62095 7.96422 2.674C7.95389 2.72705 7.94873 2.78058 7.94873 2.83504C7.94873 2.88903 7.95389 2.94255 7.96422 2.9956C7.97502 3.04865 7.99051 3.09982 8.01117 3.15006C8.0323 3.19982 8.05765 3.24724 8.0877 3.29231C8.11774 3.33738 8.15202 3.3787 8.19005 3.41719L10.6605 5.88292C10.6985 5.92142 10.7403 5.95522 10.7854 5.98527C10.8304 6.01532 10.8778 6.04067 10.9281 6.06133C10.9778 6.08198 11.0295 6.09748 11.0825 6.10827C11.1356 6.1186 11.1896 6.12424 11.2436 6.12424C11.2976 6.12424 11.3515 6.1186 11.4046 6.10827C11.4577 6.09748 11.5093 6.08198 11.5591 6.06133C11.6093 6.04067 11.6567 6.01532 11.7018 5.98527C11.7469 5.95522 11.7886 5.92142 11.8267 5.88292L12.0206 5.68996C12.0591 5.65147 12.0929 5.61015 12.1229 5.56508C12.1534 5.52001 12.1788 5.47259 12.1994 5.42283C12.2201 5.37259 12.2356 5.32095 12.2464 5.26837C12.2567 5.21532 12.2619 5.16133 12.2619 5.10734C12.2619 5.05335 12.2567 4.99982 12.2464 4.94677C12.2356 4.89372 12.2201 4.84255 12.1994 4.79231C12.1788 4.74255 12.1534 4.69513 12.1229 4.65006C12.0929 4.60499 12.0591 4.5632 12.0206 4.52518L9.55061 2.05945Z" fill="black"/>
<mask id="mask0_34_25659" style="mask-type:luminance" maskUnits="userSpaceOnUse" x="0" y="14" width="3" height="4">
<path d="M0 14.311H2.55775V17.9167H0V14.311Z" fill="white"/>
</mask>
<g mask="url(#mask0_34_25659)">
<path d="M1.22638 14.426C0.449859 14.426 0.00244141 16.1364 0.00244141 16.6795C0.00244141 16.7598 0.0104227 16.8392 0.0259156 16.918C0.041878 16.9969 0.0648826 17.073 0.0953991 17.1472C0.126385 17.2213 0.163944 17.2918 0.208545 17.3584C0.253146 17.4251 0.30385 17.4871 0.361127 17.5439C0.417934 17.6002 0.479437 17.6509 0.546573 17.6955C0.613239 17.7401 0.683662 17.7777 0.75784 17.8087C0.832019 17.8392 0.908545 17.8626 0.987418 17.8781C1.06629 17.8936 1.1461 17.9016 1.22638 17.9016C1.30667 17.9016 1.38601 17.8936 1.46488 17.8781C1.54376 17.8626 1.62028 17.8392 1.69446 17.8087C1.76864 17.7777 1.83953 17.7401 1.9062 17.6955C1.97286 17.6509 2.03484 17.6002 2.09164 17.5439C2.14845 17.4871 2.19915 17.4251 2.24376 17.3584C2.28836 17.2918 2.32592 17.2213 2.3569 17.1472C2.38742 17.073 2.41089 16.9969 2.42638 16.918C2.44235 16.8392 2.44986 16.7598 2.44986 16.6795C2.44986 16.1364 2.00291 14.426 1.22638 14.426Z" fill="black"/>
</g>
<path d="M7.87335 3.735C7.86396 3.72561 7.85739 3.71435 7.84847 3.70496L1.72218 9.82045C1.61044 9.93266 1.51514 10.0571 1.43673 10.1946C1.35786 10.3317 1.29871 10.4773 1.2588 10.6303C1.21889 10.7834 1.19965 10.9388 1.20105 11.097C1.20246 11.2552 1.22453 11.4106 1.26725 11.5627L0.807157 12.0233C0.766781 12.0636 0.730631 12.1078 0.698706 12.1552C0.666781 12.2031 0.640021 12.2533 0.617955 12.3059C0.596359 12.3589 0.579457 12.4134 0.568659 12.4693C0.557392 12.5256 0.551758 12.582 0.551758 12.6392C0.551758 12.6965 0.557392 12.7533 0.568659 12.8092C0.579457 12.8655 0.596359 12.92 0.617955 12.9726C0.640021 13.0256 0.666781 13.0758 0.698706 13.1233C0.730631 13.1707 0.766781 13.2148 0.807157 13.2552C0.847532 13.2956 0.891664 13.3317 0.939551 13.3636C0.986969 13.3956 1.0372 13.4223 1.09026 13.4444C1.14331 13.466 1.19777 13.4824 1.25411 13.4937C1.30997 13.505 1.36678 13.5106 1.42406 13.5106C1.48134 13.5106 1.53814 13.505 1.59448 13.4937C1.65082 13.4824 1.70528 13.466 1.75833 13.4444C1.81091 13.4223 1.86115 13.3956 1.90903 13.3636C1.95645 13.3317 2.00058 13.2956 2.04143 13.2552L2.50199 12.796C2.65457 12.8383 2.80997 12.8604 2.96866 12.8618C3.12734 12.8632 3.28321 12.8439 3.43626 12.804C3.58979 12.7636 3.73533 12.7045 3.87288 12.6261C4.01044 12.5477 4.13533 12.4524 4.24753 12.3406L10.3729 6.22514C10.3635 6.21622 10.3522 6.21012 10.3428 6.20073L7.87335 3.735Z" fill="black"/>
<path d="M13.583 1.00826L13.0732 0.499336C13.007 0.433609 12.9351 0.374454 12.8572 0.322811C12.7793 0.270698 12.6971 0.227036 12.6107 0.191355C12.5243 0.155674 12.4351 0.128914 12.3436 0.110604C12.2516 0.0922942 12.1591 0.083374 12.0656 0.083374C11.9722 0.083374 11.8793 0.0922942 11.7877 0.110604C11.6962 0.128914 11.607 0.155674 11.5206 0.191355C11.4342 0.227036 11.352 0.270698 11.2741 0.322811C11.1962 0.374454 11.1243 0.433609 11.0581 0.499336L9.83936 1.71718C9.91635 1.78337 12.2971 4.16037 12.3638 4.23736L13.583 3.02046C13.6492 2.95427 13.7079 2.88244 13.76 2.8045C13.8117 2.72704 13.8558 2.64488 13.8915 2.55849C13.9271 2.47258 13.9544 2.38337 13.9722 2.29182C13.9905 2.20028 13.9999 2.10779 13.9999 2.01436C13.9999 1.92093 13.9905 1.82844 13.9722 1.7369C13.9544 1.64535 13.9271 1.55661 13.8915 1.47023C13.8558 1.38384 13.8117 1.30168 13.76 1.22422C13.7079 1.14628 13.6492 1.07445 13.583 1.00826Z" fill="black"/>
</svg>