<svg xmlns="http://www.w3.org/2000/svg" width="21" height="21" viewBox="0 0 21 21" fill="none">
<path fill-rule="evenodd" clip-rule="evenodd" d="M10.5 18.5C12.6217 18.5 14.6566 17.6571 16.1569 16.1569C17.6571 14.6566 18.5 12.6217 18.5 10.5C18.5 8.37827 17.6571 6.34344 16.1569 4.84315C14.6566 3.34285 12.6217 2.5 10.5 2.5C8.37827 2.5 6.34344 3.34285 4.84315 4.84315C3.34285 6.34344 2.5 8.37827 2.5 10.5C2.5 12.6217 3.34285 14.6566 4.84315 16.1569C6.34344 17.6571 8.37827 18.5 10.5 18.5ZM11.5 7.5C11.5 7.23478 11.3946 6.98043 11.2071 6.79289C11.0196 6.60536 10.7652 6.5 10.5 6.5C10.2348 6.5 9.98043 6.60536 9.79289 6.79289C9.60536 6.98043 9.5 7.23478 9.5 7.5V9.5H7.5C7.23478 9.5 6.98043 9.60536 6.79289 9.79289C6.60536 9.98043 6.5 10.2348 6.5 10.5C6.5 10.7652 6.60536 11.0196 6.79289 11.2071C6.98043 11.3946 7.23478 11.5 7.5 11.5H9.5V13.5C9.5 13.7652 9.60536 14.0196 9.79289 14.2071C9.98043 14.3946 10.2348 14.5 10.5 14.5C10.7652 14.5 11.0196 14.3946 11.2071 14.2071C11.3946 14.0196 11.5 13.7652 11.5 13.5V11.5H13.5C13.7652 11.5 14.0196 11.3946 14.2071 11.2071C14.3946 11.0196 14.5 10.7652 14.5 10.5C14.5 10.2348 14.3946 9.98043 14.2071 9.79289C14.0196 9.60536 13.7652 9.5 13.5 9.5H11.5V7.5Z" fill="#EB6D5B"/>
</svg>