<svg xmlns="http://www.w3.org/2000/svg" width="250" height="251" viewBox="0 0 250 251" fill="none">
<rect x="12.5" y="13" width="225" height="225" fill="white"/>
<path d="M125 58.8334V67.1667M175 158.833H191.667M141.667 158.833H125V192.167M125 100.5V125.5M125 125.5H125.083M125 125.5H158.417M158.333 192.167H191.667M58.3333 125.5H91.6666M191.667 125.5H191.75M66.6666 92.1667H83.3333C85.5434 92.1667 87.663 91.2887 89.2258 89.7259C90.7886 88.1631 91.6666 86.0435 91.6666 83.8334V67.1667C91.6666 64.9566 90.7886 62.837 89.2258 61.2742C87.663 59.7113 85.5434 58.8334 83.3333 58.8334H66.6666C64.4564 58.8334 62.3368 59.7113 60.774 61.2742C59.2112 62.837 58.3333 64.9566 58.3333 67.1667V83.8334C58.3333 86.0435 59.2112 88.1631 60.774 89.7259C62.3368 91.2887 64.4564 92.1667 66.6666 92.1667ZM166.667 92.1667H183.333C185.543 92.1667 187.663 91.2887 189.226 89.7259C190.789 88.1631 191.667 86.0435 191.667 83.8334V67.1667C191.667 64.9566 190.789 62.837 189.226 61.2742C187.663 59.7113 185.543 58.8334 183.333 58.8334H166.667C164.456 58.8334 162.337 59.7113 160.774 61.2742C159.211 62.837 158.333 64.9566 158.333 67.1667V83.8334C158.333 86.0435 159.211 88.1631 160.774 89.7259C162.337 91.2887 164.456 92.1667 166.667 92.1667ZM66.6666 192.167H83.3333C85.5434 192.167 87.663 191.289 89.2258 189.726C90.7886 188.163 91.6666 186.044 91.6666 183.833V167.167C91.6666 164.957 90.7886 162.837 89.2258 161.274C87.663 159.711 85.5434 158.833 83.3333 158.833H66.6666C64.4564 158.833 62.3368 159.711 60.774 161.274C59.2112 162.837 58.3333 164.957 58.3333 167.167V183.833C58.3333 186.044 59.2112 188.163 60.774 189.726C62.3368 191.289 64.4564 192.167 66.6666 192.167Z" stroke="#111928" stroke-width="16.6667" stroke-linecap="round" stroke-linejoin="round"/>
<rect x="12.5" y="13" width="225" height="225" stroke="#E8E8E8" stroke-width="25"/>
</svg>