<svg xmlns="http://www.w3.org/2000/svg" width="17" height="17" viewBox="0 0 17 17" fill="none">
<path fill-rule="evenodd" clip-rule="evenodd" d="M8.5 16.5C10.6217 16.5 12.6566 15.6571 14.1569 14.1569C15.6571 12.6566 16.5 10.6217 16.5 8.5C16.5 6.37827 15.6571 4.34344 14.1569 2.84315C12.6566 1.34285 10.6217 0.5 8.5 0.5C6.37827 0.5 4.34344 1.34285 2.84315 2.84315C1.34285 4.34344 0.5 6.37827 0.5 8.5C0.5 10.6217 1.34285 12.6566 2.84315 14.1569C4.34344 15.6571 6.37827 16.5 8.5 16.5ZM5.5 7.5C5.23478 7.5 4.98043 7.60536 4.79289 7.79289C4.60536 7.98043 4.5 8.23478 4.5 8.5C4.5 8.76522 4.60536 9.01957 4.79289 9.20711C4.98043 9.39464 5.23478 9.5 5.5 9.5H11.5C11.7652 9.5 12.0196 9.39464 12.2071 9.20711C12.3946 9.01957 12.5 8.76522 12.5 8.5C12.5 8.23478 12.3946 7.98043 12.2071 7.79289C12.0196 7.60536 11.7652 7.5 11.5 7.5H5.5Z" fill="#EB6D5B"/>
</svg>